<svg id="svg" version="1.1" width="400" height="400" viewBox="0 0 400 400" xmlns="http://www.w3.org/2000/svg" xmlns:xlink="http://www.w3.org/1999/xlink" ><g id="svgg"><path id="path0" d="M110.014 83.574 C 109.786 83.999,109.600 84.886,109.600 85.545 C 109.600 86.684,108.913 87.762,107.992 88.069 C 107.759 88.147,107.227 89.541,106.809 91.167 C 106.390 92.793,105.864 94.237,105.640 94.376 C 105.024 94.756,104.000 97.429,104.000 98.656 C 104.000 99.250,103.469 100.831,102.821 102.168 C 102.172 103.506,101.468 105.688,101.256 107.017 C 101.044 108.346,100.516 110.056,100.082 110.817 C 99.647 111.578,99.009 113.640,98.663 115.400 C 98.318 117.160,97.662 119.367,97.206 120.305 C 96.750 121.242,96.219 123.265,96.027 124.800 C 95.834 126.334,95.319 128.357,94.883 129.295 C 93.896 131.416,93.203 134.279,93.191 136.277 C 93.186 137.115,92.814 138.610,92.364 139.600 C 91.913 140.590,91.124 143.560,90.610 146.200 C 90.096 148.840,89.317 152.440,88.881 154.200 C 88.444 155.960,87.870 159.380,87.605 161.800 C 87.340 164.220,86.872 167.190,86.565 168.400 C 86.258 169.610,85.761 174.560,85.461 179.400 L 84.916 188.200 83.502 191.000 C 80.746 196.458,77.588 198.085,68.400 198.782 C 56.696 199.670,53.071 201.902,61.777 202.861 C 67.411 203.482,71.100 205.246,71.718 207.615 C 72.142 209.241,71.472 213.998,70.631 215.327 C 70.327 215.807,69.867 217.489,69.609 219.065 C 69.294 220.989,68.876 222.170,68.337 222.657 C 67.895 223.057,67.297 223.952,67.006 224.646 C 65.734 227.692,61.982 229.713,58.565 229.195 C 52.933 228.340,50.240 219.471,52.495 209.200 C 52.857 207.550,53.365 204.670,53.624 202.800 C 53.883 200.930,54.452 198.320,54.887 197.000 C 55.323 195.680,55.844 193.430,56.046 192.000 C 56.248 190.570,56.844 187.870,57.371 186.000 C 58.810 180.891,58.879 180.186,58.038 179.148 L 57.306 178.244 54.553 179.885 C 49.522 182.885,40.913 182.811,37.578 179.741 C 37.016 179.223,36.386 178.797,36.178 178.793 C 35.634 178.784,32.685 175.630,31.789 174.100 C 31.370 173.385,30.911 172.800,30.768 172.800 C 30.625 172.800,30.193 171.945,29.806 170.900 C 29.420 169.855,28.707 168.280,28.222 167.400 C 27.737 166.520,27.011 164.675,26.607 163.300 C 25.758 160.406,25.397 160.232,24.532 162.300 C 23.686 164.320,23.984 173.341,24.983 176.000 C 25.356 176.990,26.010 179.146,26.437 180.791 C 26.864 182.435,27.661 184.457,28.207 185.282 C 28.753 186.107,29.200 186.929,29.200 187.107 C 29.200 187.523,31.899 190.680,33.184 191.767 C 33.725 192.225,34.621 193.095,35.173 193.700 C 35.726 194.305,36.304 194.800,36.458 194.800 C 36.612 194.800,37.248 195.295,37.871 195.900 C 38.494 196.505,39.970 197.810,41.151 198.800 C 47.101 203.787,47.996 206.878,47.999 222.445 C 48.001 233.997,50.203 237.465,59.400 240.402 C 60.280 240.683,61.094 241.057,61.209 241.233 C 61.751 242.063,68.624 245.205,70.733 245.588 C 72.099 245.836,77.804 245.994,84.249 245.964 C 95.122 245.913,95.475 245.936,98.400 246.905 C 100.050 247.451,102.570 248.116,104.000 248.382 C 105.430 248.648,107.140 249.105,107.800 249.398 C 109.490 250.149,111.500 250.695,113.620 250.980 C 114.622 251.115,116.602 251.579,118.020 252.011 C 124.003 253.833,132.000 253.840,132.000 252.023 C 132.000 251.827,130.279 249.987,128.175 247.934 C 123.907 243.767,123.549 243.143,122.825 238.621 C 122.545 236.873,121.978 234.383,121.564 233.087 C 119.894 227.859,118.983 218.571,119.496 212.000 C 119.884 207.020,119.750 205.904,118.578 204.400 C 118.321 204.070,117.825 202.940,117.476 201.889 C 117.127 200.838,116.472 199.509,116.021 198.935 C 115.569 198.362,115.200 197.699,115.200 197.463 C 115.200 196.928,111.245 188.817,110.585 188.000 C 110.319 187.670,109.876 186.680,109.600 185.800 C 109.324 184.920,108.885 183.930,108.624 183.600 C 108.362 183.270,107.193 181.020,106.025 178.600 C 104.856 176.180,103.642 173.750,103.326 173.200 C 103.011 172.650,102.390 171.390,101.948 170.400 C 101.505 169.410,100.729 167.790,100.224 166.800 C 99.718 165.810,99.189 164.384,99.048 163.630 C 98.907 162.877,98.338 161.300,97.782 160.126 C 95.554 155.416,94.402 148.418,95.160 144.200 C 95.397 142.880,95.782 140.090,96.015 138.000 C 96.259 135.809,96.762 133.573,97.203 132.719 C 97.624 131.904,98.266 129.564,98.630 127.519 C 98.995 125.473,99.640 123.131,100.064 122.314 C 100.488 121.497,101.111 119.247,101.448 117.314 C 101.785 115.381,102.294 113.530,102.580 113.200 C 103.239 112.439,103.861 110.361,104.198 107.800 C 104.343 106.700,104.824 105.178,105.266 104.417 C 105.709 103.656,106.401 101.526,106.803 99.684 C 107.206 97.842,107.826 96.013,108.182 95.620 C 108.538 95.227,109.019 93.756,109.251 92.352 C 109.944 88.158,109.992 88.000,110.589 88.000 C 110.942 88.000,111.261 87.420,111.415 86.500 C 111.553 85.675,111.716 84.820,111.779 84.600 C 112.165 83.234,110.663 82.361,110.014 83.574 M299.723 120.480 C 298.926 121.496,298.814 123.199,298.392 140.600 C 298.145 150.779,297.722 160.139,297.388 162.800 C 295.716 176.127,295.370 178.000,294.480 178.551 C 294.276 178.677,293.871 179.639,293.578 180.690 C 291.481 188.224,284.087 194.000,276.537 194.000 C 271.059 194.000,270.456 195.017,273.219 199.600 C 273.816 200.590,274.524 202.120,274.791 203.000 C 275.059 203.880,275.731 205.763,276.286 207.185 C 277.789 211.041,277.774 219.244,276.255 223.549 C 274.957 227.228,274.560 230.005,275.170 231.144 C 275.835 232.386,275.938 232.320,278.998 228.700 C 288.661 217.269,291.426 216.714,296.139 225.260 C 296.667 226.217,297.680 228.044,298.391 229.321 C 300.027 232.260,302.143 234.331,303.753 234.566 C 318.916 236.783,367.070 236.543,371.548 234.227 C 375.365 232.253,375.561 221.369,371.920 213.600 C 371.250 212.170,370.503 210.550,370.259 210.000 C 370.016 209.450,369.408 208.443,368.908 207.762 C 368.409 207.081,368.000 206.344,368.000 206.124 C 368.000 205.904,367.626 205.386,367.169 204.972 C 366.712 204.558,366.001 203.480,365.589 202.575 C 365.177 201.671,364.547 200.688,364.189 200.391 C 363.831 200.093,363.096 199.029,362.557 198.025 C 359.377 192.109,357.644 190.255,354.472 189.378 C 347.947 187.575,347.816 185.319,353.575 174.000 C 355.860 169.509,355.069 166.303,352.356 169.059 C 351.739 169.687,349.845 171.460,348.148 173.000 C 346.452 174.540,344.595 176.271,344.022 176.846 C 343.449 177.421,342.232 178.274,341.317 178.740 C 340.403 179.207,339.543 179.769,339.407 179.989 C 339.271 180.209,337.864 180.778,336.280 181.252 C 334.696 181.727,332.551 182.539,331.513 183.058 C 330.476 183.576,329.286 184.000,328.869 184.000 C 328.453 184.000,327.452 184.448,326.645 184.995 C 325.838 185.543,324.677 186.250,324.064 186.567 C 322.802 187.219,317.200 192.724,317.200 193.311 C 317.200 193.522,316.705 194.279,316.100 194.993 C 315.495 195.707,314.460 197.250,313.800 198.420 C 309.125 206.711,308.671 207.267,306.681 207.122 L 305.000 207.000 304.797 204.200 C 304.513 200.288,305.042 178.918,305.586 172.357 C 306.223 164.664,306.338 137.640,305.738 136.598 C 305.263 135.772,304.000 129.133,304.000 127.460 C 304.000 125.395,300.434 119.574,299.723 120.480 M124.800 139.133 C 122.841 139.727,125.681 143.399,128.864 144.387 C 129.819 144.684,130.969 145.148,131.420 145.420 C 132.977 146.357,137.985 146.800,147.077 146.804 C 159.930 146.811,160.562 147.037,161.390 151.940 C 161.895 154.928,164.257 155.267,165.412 152.517 C 167.034 148.656,166.134 145.300,163.000 143.516 C 160.119 141.876,159.488 141.655,155.862 141.016 C 154.068 140.700,151.340 140.149,149.800 139.792 C 146.742 139.083,126.708 138.555,124.800 139.133 M254.717 146.807 C 252.834 146.986,251.116 147.406,250.305 147.885 C 249.574 148.316,248.458 148.799,247.826 148.958 C 243.440 150.059,241.454 155.969,244.284 159.498 C 244.770 160.104,245.514 161.044,245.938 161.587 C 247.199 163.202,248.000 162.137,248.000 158.847 C 248.000 155.180,247.906 155.219,257.943 154.774 C 265.772 154.426,270.726 153.940,271.537 153.439 C 271.739 153.314,274.014 152.870,276.593 152.451 C 283.188 151.380,283.919 150.205,279.420 147.908 C 276.803 146.573,263.413 145.976,254.717 146.807 M356.804 200.477 C 362.064 201.691,364.673 215.357,360.808 221.451 C 358.220 225.533,355.935 226.794,351.119 226.798 C 347.562 226.801,346.355 226.223,342.939 222.882 C 341.737 221.707,341.673 219.053,342.793 216.903 C 343.229 216.066,343.759 214.472,343.969 213.361 C 344.180 212.250,344.992 210.094,345.774 208.571 C 346.556 207.047,347.197 205.518,347.198 205.173 C 347.199 204.828,347.830 203.838,348.600 202.973 C 349.370 202.108,350.000 201.283,350.000 201.140 C 350.001 200.260,354.123 199.858,356.804 200.477 M331.000 202.442 C 333.212 203.046,335.031 204.521,336.612 206.992 L 337.954 209.090 338.238 217.147 C 338.535 225.595,338.328 226.800,336.581 226.800 C 336.308 226.800,335.980 227.075,335.851 227.411 C 335.289 228.875,326.972 230.800,321.206 230.800 C 318.091 230.800,312.960 229.325,311.400 227.981 C 310.960 227.602,309.911 226.946,309.070 226.522 C 305.779 224.865,305.589 221.428,308.605 218.068 C 320.566 204.740,325.868 201.040,331.000 202.442 M190.400 202.782 C 186.427 203.022,185.162 203.320,178.800 205.515 C 173.027 207.507,169.848 214.129,172.160 219.350 C 172.732 220.642,173.200 222.003,173.200 222.373 C 173.200 222.744,173.830 224.093,174.600 225.372 C 175.370 226.651,176.000 227.917,176.000 228.186 C 176.000 228.456,176.358 229.000,176.796 229.397 C 177.234 229.793,178.028 230.856,178.559 231.759 C 179.090 232.661,180.742 234.390,182.228 235.600 C 193.780 245.001,194.372 246.840,187.334 251.466 L 185.000 253.000 171.200 253.000 L 157.400 253.000 154.490 251.528 C 152.890 250.718,151.031 249.593,150.360 249.028 C 149.688 248.462,149.009 248.000,148.852 248.000 C 148.694 248.000,146.708 246.200,144.440 244.000 C 140.027 239.721,139.840 239.604,139.230 240.744 C 137.728 243.550,142.073 250.334,149.720 257.122 C 154.759 261.596,170.392 263.018,181.000 259.967 C 187.955 257.967,195.680 257.885,214.400 259.612 C 221.708 260.286,235.210 259.309,239.200 257.817 C 240.190 257.447,242.350 256.818,244.000 256.418 C 245.650 256.019,248.080 255.216,249.400 254.633 C 253.590 252.784,259.200 249.867,259.200 249.538 C 259.200 249.363,259.784 248.919,260.497 248.550 C 262.573 247.476,265.989 244.281,266.001 243.400 C 266.016 242.315,266.445 241.731,267.400 241.493 C 267.880 241.373,267.617 241.274,266.743 241.246 C 265.808 241.217,265.206 241.407,265.064 241.778 C 264.942 242.096,264.158 242.475,263.321 242.620 C 262.484 242.766,261.170 243.280,260.400 243.763 C 259.630 244.246,258.190 244.871,257.200 245.150 C 256.210 245.430,254.553 246.093,253.519 246.624 C 252.484 247.154,250.774 247.779,249.719 248.013 C 248.663 248.247,247.080 248.778,246.200 249.193 C 245.320 249.609,243.160 250.236,241.400 250.587 C 239.640 250.938,237.120 251.568,235.800 251.987 C 229.445 254.005,215.859 254.018,213.702 252.010 C 213.288 251.624,212.562 251.101,212.089 250.848 C 210.967 250.247,210.217 247.708,210.580 245.739 C 210.885 244.087,211.374 243.570,222.943 232.651 C 225.944 229.820,229.237 226.329,230.260 224.895 L 232.121 222.287 232.139 218.404 L 232.157 214.521 230.597 212.361 C 224.002 203.225,215.715 201.250,190.400 202.782 M91.526 204.792 C 92.431 205.448,93.473 206.573,93.841 207.292 C 94.210 208.011,94.650 208.691,94.820 208.801 C 94.989 208.912,95.317 210.082,95.547 211.401 C 98.040 225.654,98.377 226.800,100.071 226.800 C 100.489 226.800,101.028 226.337,101.298 225.745 C 101.562 225.165,102.585 224.188,103.571 223.575 L 105.364 222.459 107.080 224.329 C 108.024 225.358,108.993 226.908,109.233 227.774 C 109.474 228.639,110.176 230.294,110.793 231.451 C 112.287 234.251,112.778 238.119,111.780 239.222 C 109.902 241.297,103.467 239.350,100.900 235.931 C 99.498 234.063,92.839 233.992,87.456 235.788 C 76.685 239.381,66.987 237.304,68.365 231.701 C 69.135 228.567,70.381 224.705,70.774 224.231 C 70.999 223.960,71.431 222.557,71.733 221.115 C 72.110 219.319,72.626 218.130,73.370 217.346 C 73.968 216.715,74.824 215.435,75.273 214.500 C 75.721 213.565,76.236 212.800,76.417 212.800 C 76.598 212.800,76.849 212.476,76.975 212.079 C 78.755 206.471,87.676 202.003,91.526 204.792 M80.083 298.267 C 77.901 299.343,77.781 300.109,79.544 301.701 C 82.463 304.339,82.400 304.085,82.400 313.214 L 82.400 321.450 81.200 322.600 C 79.902 323.844,79.506 326.546,80.480 327.520 C 81.341 328.381,90.925 328.166,91.738 327.269 C 93.195 325.659,92.065 322.800,89.973 322.800 C 87.907 322.800,86.973 314.165,88.748 311.473 L 89.491 310.346 90.381 312.073 C 90.871 313.023,91.685 314.250,92.191 314.800 C 92.696 315.350,93.222 316.173,93.360 316.629 C 93.497 317.086,93.951 317.825,94.368 318.273 C 94.785 318.721,95.500 319.821,95.957 320.717 C 96.415 321.613,96.974 322.460,97.200 322.600 C 97.426 322.740,97.984 323.585,98.440 324.478 C 99.716 326.980,101.032 328.000,102.982 328.000 C 106.265 328.000,106.173 328.337,106.412 315.533 C 106.632 303.731,106.693 303.276,108.298 301.538 C 110.574 299.071,107.564 297.367,101.491 297.685 C 94.590 298.046,94.079 299.508,99.374 303.739 L 100.800 304.879 100.794 309.339 C 100.787 314.708,100.504 315.413,98.972 313.881 C 98.377 313.286,97.764 312.800,97.609 312.800 C 97.454 312.800,96.840 311.906,96.245 310.812 C 95.650 309.719,94.991 308.718,94.781 308.588 C 94.570 308.458,94.047 307.582,93.619 306.641 C 93.190 305.700,92.557 304.697,92.212 304.410 C 91.867 304.124,91.301 303.291,90.953 302.558 C 90.606 301.826,89.562 300.411,88.633 299.413 L 86.944 297.600 84.172 297.609 C 82.439 297.615,80.906 297.862,80.083 298.267 M204.740 298.224 C 202.737 299.088,202.568 300.108,204.132 301.888 L 205.400 303.332 205.526 312.608 L 205.652 321.885 204.426 322.917 C 202.913 324.190,202.653 326.879,203.974 327.586 C 205.289 328.290,220.564 328.124,222.113 327.389 C 228.558 324.331,230.218 321.330,230.179 312.800 C 230.129 301.659,225.963 298.006,213.000 297.736 C 207.469 297.621,205.928 297.712,204.740 298.224 M218.704 303.627 C 224.316 304.711,226.773 311.945,223.882 318.867 C 222.811 321.428,220.481 322.558,216.225 322.581 C 210.904 322.608,211.200 323.159,211.200 313.227 C 211.200 304.082,211.284 303.734,213.620 303.240 C 215.114 302.923,215.025 302.917,218.704 303.627 M120.048 304.776 C 118.845 305.082,117.923 305.448,116.034 306.368 C 113.382 307.661,114.864 311.024,117.918 310.642 C 125.819 309.655,128.493 309.932,127.578 311.642 C 127.238 312.277,126.710 312.400,124.317 312.400 C 122.351 312.400,121.258 312.585,120.805 312.995 C 120.443 313.323,119.157 313.908,117.947 314.295 C 107.707 317.574,111.321 329.747,122.205 328.642 C 123.522 328.508,127.480 328.292,131.000 328.161 C 138.994 327.864,139.162 327.766,138.165 323.992 C 138.077 323.658,137.394 323.056,136.648 322.654 L 135.292 321.924 135.108 316.862 C 134.882 310.659,133.917 307.583,131.869 306.546 C 131.171 306.193,130.286 305.628,129.901 305.291 C 129.083 304.574,122.248 304.217,120.048 304.776 M153.035 305.174 C 150.922 305.871,150.552 305.892,149.555 305.377 C 147.455 304.291,145.528 304.620,143.606 306.394 L 141.879 307.988 142.996 309.094 C 144.799 310.881,145.200 312.346,145.200 317.154 L 145.200 321.533 143.600 322.800 C 139.751 325.849,141.625 328.000,148.130 328.000 C 154.342 328.000,156.145 325.766,152.356 322.765 L 150.712 321.463 150.870 317.544 C 151.141 310.799,157.215 307.015,160.294 311.672 C 161.968 314.204,161.972 320.952,160.300 322.696 C 157.389 325.733,159.046 327.975,164.200 327.975 C 169.190 327.975,171.119 325.542,168.260 322.857 C 167.420 322.067,167.294 321.502,167.066 317.487 C 166.648 310.123,165.840 307.951,162.792 305.995 C 160.148 304.298,156.598 304.000,153.035 305.174 M181.800 304.769 C 178.630 305.657,176.000 307.214,176.000 308.204 C 176.000 309.642,178.003 310.882,179.917 310.629 C 184.759 309.988,188.639 309.924,189.098 310.477 C 190.027 311.596,188.972 312.175,185.541 312.427 C 183.727 312.560,182.178 312.865,182.098 313.105 C 182.019 313.344,180.990 313.843,179.813 314.213 C 169.468 317.467,172.862 329.728,183.810 328.649 C 185.124 328.519,189.116 328.299,192.680 328.160 C 200.110 327.870,200.504 327.703,200.058 325.032 C 199.861 323.850,199.504 323.301,198.610 322.806 C 197.091 321.964,196.888 321.157,196.840 315.771 C 196.795 310.754,195.580 307.527,193.309 306.390 C 192.699 306.084,191.886 305.574,191.501 305.256 C 190.686 304.582,183.718 304.231,181.800 304.769 M244.800 304.649 C 240.136 306.502,238.670 307.527,236.591 310.392 L 235.000 312.585 235.000 317.002 C 235.000 321.076,235.072 321.496,235.931 322.410 C 236.443 322.954,237.157 323.895,237.517 324.500 C 237.878 325.105,238.307 325.600,238.472 325.600 C 238.637 325.600,239.376 326.130,240.114 326.778 C 243.720 329.944,257.948 329.222,260.537 325.742 C 262.617 322.947,260.420 322.071,253.168 322.803 C 247.986 323.326,244.998 323.130,243.086 322.141 L 241.896 321.526 242.760 320.663 C 243.590 319.835,243.959 319.800,251.844 319.800 C 261.755 319.800,261.452 319.965,261.208 314.700 C 260.936 308.817,250.460 302.400,244.800 304.649 M306.400 304.691 C 305.850 304.791,305.130 305.092,304.800 305.359 C 304.470 305.627,303.712 306.053,303.115 306.307 C 299.538 307.830,298.492 312.212,300.950 315.385 C 302.557 317.461,302.661 317.527,304.800 317.838 C 308.130 318.322,313.999 319.907,315.077 320.614 L 316.146 321.314 315.272 322.022 C 312.939 323.911,305.765 323.488,304.146 321.365 C 301.882 318.396,298.694 319.657,298.641 323.543 C 298.591 327.228,299.184 327.803,303.469 328.223 C 312.697 329.127,316.868 328.553,319.538 326.013 C 323.086 322.637,322.717 319.746,318.133 315.006 C 317.876 314.740,316.097 314.403,314.180 314.255 C 309.381 313.886,305.291 311.600,307.232 310.372 C 308.438 309.609,313.152 309.933,313.904 310.832 C 315.086 312.244,317.097 313.024,319.090 312.844 C 319.359 312.820,319.854 312.269,320.190 311.620 C 321.640 308.815,320.337 305.809,317.532 305.487 C 316.579 305.378,315.080 305.093,314.200 304.854 C 312.623 304.425,308.350 304.336,306.400 304.691 M266.600 305.342 C 263.421 306.796,263.323 308.428,266.298 310.350 C 268.324 311.659,268.505 311.936,272.183 319.377 C 276.383 327.870,276.609 328.119,279.973 327.924 C 281.880 327.813,282.179 327.671,282.755 326.600 C 283.111 325.940,283.784 324.770,284.252 324.000 C 284.720 323.230,285.328 321.880,285.602 321.000 C 285.877 320.120,286.333 319.130,286.616 318.800 C 286.899 318.470,287.585 317.167,288.141 315.905 C 289.200 313.501,291.852 310.000,292.615 310.000 C 292.860 310.000,293.486 309.547,294.006 308.994 L 294.951 307.988 293.394 306.394 L 291.838 304.800 288.076 304.800 C 282.529 304.800,279.834 306.962,282.200 309.513 C 283.997 311.451,283.329 314.858,280.485 318.260 C 279.685 319.217,278.922 320.000,278.789 320.000 C 278.501 320.000,277.200 317.348,277.200 316.760 C 277.200 316.533,276.750 315.757,276.200 315.036 C 274.760 313.147,274.837 311.060,276.401 309.599 C 279.679 306.537,271.629 303.040,266.600 305.342 M251.066 310.514 C 252.250 311.178,253.708 313.102,253.402 313.596 C 253.136 314.028,243.112 314.179,242.691 313.758 C 242.331 313.398,244.075 310.897,245.000 310.445 C 246.133 309.892,250.036 309.936,251.066 310.514 M127.610 319.426 C 128.620 322.082,127.283 322.906,121.868 322.965 C 117.066 323.018,116.228 321.284,120.145 319.399 C 123.158 317.948,127.053 317.963,127.610 319.426 M188.640 318.706 C 189.160 319.053,190.000 320.571,190.000 321.163 C 190.000 322.836,181.705 323.739,180.053 322.247 C 179.063 321.352,179.193 321.067,181.155 319.828 C 183.252 318.505,187.406 317.882,188.640 318.706 " stroke="none" fill="#141004" fill-rule="evenodd"></path><path id="path1" d="M162.800 0.751 C 162.800 1.447,162.339 1.515,156.547 1.671 C 150.386 1.836,150.281 1.854,149.447 2.879 C 148.626 3.887,147.046 4.195,141.714 4.383 C 141.447 4.392,140.614 4.939,139.865 5.597 C 138.692 6.627,138.160 6.801,136.051 6.849 C 134.703 6.880,133.600 7.055,133.600 7.240 C 133.600 7.424,133.362 7.484,133.072 7.372 C 132.781 7.261,132.124 7.716,131.612 8.385 C 130.803 9.439,130.427 9.600,128.766 9.600 C 126.339 9.600,124.781 10.188,124.515 11.205 C 124.376 11.735,123.955 12.009,123.253 12.026 C 120.303 12.097,119.477 12.357,118.381 13.557 C 117.491 14.531,116.916 14.800,115.723 14.800 C 114.467 14.800,114.007 15.041,113.100 16.178 C 112.183 17.328,111.702 17.576,110.194 17.678 C 109.201 17.745,108.391 17.935,108.394 18.100 C 108.411 18.950,106.687 20.000,105.274 20.000 C 104.032 20.000,103.516 20.261,102.508 21.400 C 101.585 22.443,100.946 22.800,100.006 22.800 C 98.551 22.800,97.600 23.579,97.600 24.771 C 97.600 25.461,97.349 25.601,96.100 25.605 C 93.780 25.614,92.813 26.007,92.552 27.048 C 92.376 27.750,92.036 28.000,91.257 28.000 C 90.529 28.000,89.853 28.435,89.083 29.400 C 88.259 30.433,87.655 30.800,86.783 30.800 C 86.132 30.800,85.600 30.980,85.600 31.200 C 85.600 31.420,85.375 31.555,85.100 31.500 C 84.825 31.445,84.576 31.670,84.546 32.000 C 84.517 32.330,84.472 32.814,84.446 33.075 C 84.421 33.336,83.815 33.606,83.100 33.675 C 82.017 33.779,81.779 33.983,81.673 34.900 C 81.580 35.713,81.326 36.000,80.702 36.000 C 79.207 36.000,77.277 36.912,76.868 37.812 C 76.632 38.329,75.955 38.789,75.208 38.938 C 74.505 39.079,74.058 39.370,74.197 39.595 C 74.335 39.818,74.257 40.000,74.024 40.000 C 73.791 40.000,73.600 40.360,73.600 40.800 C 73.600 41.424,73.333 41.600,72.390 41.600 C 71.366 41.600,71.143 41.784,70.940 42.800 C 70.808 43.460,70.453 44.023,70.150 44.050 C 69.047 44.150,68.861 44.206,68.533 44.533 C 68.201 44.865,68.145 45.060,68.050 46.200 C 68.018 46.589,67.578 46.800,66.800 46.800 C 66.070 46.800,65.600 47.008,65.600 47.330 C 65.600 47.974,63.934 49.600,63.274 49.600 C 63.013 49.600,62.800 49.778,62.800 49.995 C 62.800 50.593,61.489 52.000,60.933 52.000 C 60.664 52.000,60.208 52.495,59.920 53.100 C 59.632 53.705,58.992 54.378,58.498 54.595 C 58.004 54.812,57.600 55.186,57.600 55.425 C 57.600 55.995,55.884 57.600,55.274 57.600 C 55.013 57.600,54.800 57.778,54.800 57.995 C 54.800 58.610,53.482 60.000,52.899 60.000 C 52.611 60.000,52.262 60.315,52.123 60.700 C 51.811 61.568,50.576 62.800,50.017 62.800 C 49.788 62.800,49.600 63.062,49.600 63.383 C 49.600 63.704,48.970 64.469,48.200 65.083 C 47.346 65.764,46.800 66.551,46.800 67.100 C 46.800 67.611,46.541 68.022,46.200 68.050 C 45.060 68.145,44.865 68.201,44.533 68.533 C 44.204 68.863,44.148 69.053,44.050 70.173 C 44.023 70.489,43.505 70.804,42.900 70.873 C 41.983 70.979,41.779 71.217,41.675 72.300 C 41.581 73.276,41.356 73.600,40.775 73.600 C 40.349 73.600,40.000 73.791,40.000 74.024 C 40.000 74.257,39.820 74.336,39.600 74.200 C 39.367 74.056,39.200 74.460,39.200 75.169 C 39.200 76.098,38.987 76.438,38.296 76.612 C 37.192 76.889,36.000 78.859,36.000 80.406 C 36.000 81.353,35.813 81.568,34.900 81.673 C 33.983 81.779,33.779 82.017,33.675 83.100 C 33.606 83.815,33.336 84.421,33.075 84.446 C 32.814 84.472,32.330 84.517,32.001 84.546 C 31.412 84.599,31.350 84.756,31.250 86.440 C 31.223 86.902,30.525 87.937,29.700 88.740 C 28.875 89.543,28.176 90.380,28.146 90.600 C 28.117 90.820,28.072 91.295,28.046 91.657 C 28.021 92.018,27.572 92.421,27.048 92.552 C 26.007 92.813,25.614 93.780,25.605 96.100 C 25.601 97.426,25.486 97.600,24.614 97.600 C 23.510 97.600,22.800 98.607,22.800 100.174 C 22.800 101.162,21.580 102.800,20.843 102.800 C 20.349 102.800,20.002 103.826,19.987 105.333 C 19.974 106.689,19.075 108.200,18.283 108.200 C 17.992 108.200,17.752 108.939,17.680 110.054 C 17.581 111.579,17.315 112.130,16.180 113.164 C 15.104 114.143,14.800 114.731,14.800 115.832 C 14.800 116.903,14.499 117.520,13.555 118.382 C 12.506 119.340,12.281 119.879,12.125 121.809 C 11.996 123.403,11.689 124.356,11.111 124.949 C 10.655 125.417,10.409 125.575,10.565 125.300 C 10.720 125.025,10.679 124.800,10.474 124.800 C 10.018 124.800,9.600 126.747,9.600 128.869 C 9.600 130.067,9.340 130.679,8.500 131.457 C 7.895 132.017,7.355 132.774,7.300 133.138 C 7.246 133.502,7.085 134.873,6.944 136.185 C 6.802 137.497,6.430 138.827,6.116 139.141 C 4.704 140.554,4.304 141.727,4.095 145.069 C 3.902 148.157,3.765 148.640,2.858 149.420 C 1.862 150.278,1.835 150.440,1.671 156.549 C 1.515 162.339,1.447 162.800,0.751 162.800 C 0.022 162.800,0.000 163.874,0.000 200.200 C 0.000 236.967,0.013 237.600,0.777 237.600 C 1.573 237.600,1.643 238.262,1.960 248.868 C 1.979 249.488,2.391 250.250,2.944 250.685 C 3.777 251.340,3.924 251.868,4.121 254.925 C 4.334 258.242,5.261 260.854,6.372 261.272 C 6.560 261.342,6.833 262.750,6.978 264.400 C 7.207 266.990,7.405 267.567,8.422 268.619 C 9.382 269.612,9.600 270.182,9.600 271.695 C 9.600 272.717,9.772 273.659,9.983 273.789 C 10.193 273.919,10.252 274.321,10.113 274.682 C 9.921 275.182,10.026 275.275,10.551 275.074 C 11.017 274.895,11.148 274.960,10.955 275.273 C 10.764 275.582,10.890 275.651,11.334 275.481 C 11.897 275.265,12.001 275.518,12.005 277.113 C 12.014 280.005,12.349 280.810,13.652 281.070 C 14.716 281.283,14.800 281.435,14.805 283.150 C 14.812 285.326,15.152 286.800,15.647 286.800 C 16.551 286.800,17.600 288.478,17.600 289.925 C 17.600 291.155,17.832 291.621,18.800 292.337 C 19.781 293.062,20.000 293.512,20.000 294.802 C 20.000 296.088,20.252 296.610,21.359 297.617 C 22.356 298.524,22.787 299.317,22.979 300.599 C 23.207 302.122,23.392 302.379,24.420 302.604 C 25.478 302.837,25.600 303.023,25.600 304.408 C 25.600 305.258,25.783 306.066,26.007 306.204 C 26.230 306.342,26.310 306.622,26.184 306.826 C 26.058 307.030,26.415 307.406,26.977 307.663 C 27.540 307.919,28.021 308.325,28.046 308.564 C 28.072 308.804,28.117 309.196,28.146 309.435 C 28.176 309.674,28.875 310.525,29.700 311.328 C 30.752 312.350,31.200 313.132,31.200 313.944 C 31.200 315.255,32.091 316.204,32.995 315.857 C 33.464 315.677,33.600 315.939,33.600 317.023 C 33.600 318.255,33.741 318.448,34.800 318.660 C 35.701 318.840,36.000 319.121,36.000 319.789 C 36.000 321.168,37.089 323.021,38.196 323.526 C 38.748 323.777,39.222 324.257,39.250 324.591 C 39.277 324.926,39.323 325.425,39.351 325.700 C 39.379 325.975,39.672 326.224,40.001 326.254 C 40.330 326.283,40.814 326.328,41.075 326.354 C 41.336 326.379,41.606 326.985,41.675 327.700 C 41.779 328.783,41.983 329.021,42.900 329.127 C 43.658 329.214,44.000 329.483,44.000 329.994 C 44.000 331.423,44.473 332.000,45.643 332.000 C 46.665 332.000,46.800 332.142,46.800 333.213 C 46.800 333.977,47.047 334.520,47.469 334.682 C 48.324 335.010,49.600 336.279,49.600 336.800 C 49.600 337.020,49.780 337.200,50.000 337.200 C 50.613 337.200,52.000 338.725,52.000 339.400 C 52.000 339.730,52.279 340.000,52.619 340.000 C 53.257 340.000,55.200 341.851,55.200 342.458 C 55.200 342.646,55.380 342.800,55.600 342.800 C 56.119 342.800,57.600 344.281,57.600 344.800 C 57.600 345.020,57.830 345.200,58.111 345.200 C 58.771 345.200,60.000 346.634,60.000 347.405 C 60.000 347.732,60.270 348.000,60.600 348.000 C 61.282 348.000,62.800 349.389,62.800 350.013 C 62.800 350.239,63.101 350.541,63.469 350.682 C 64.324 351.010,65.600 352.279,65.600 352.800 C 65.600 353.020,66.140 353.200,66.800 353.200 C 67.716 353.200,68.000 353.381,68.000 353.967 C 68.000 355.402,68.469 356.000,69.593 356.000 C 70.505 356.000,70.743 356.213,70.942 357.208 C 71.129 358.144,71.449 358.470,72.359 358.652 C 73.167 358.813,73.611 359.190,73.778 359.856 C 73.949 360.536,74.391 360.898,75.264 361.073 C 76.010 361.222,76.586 361.623,76.704 362.077 C 76.955 363.036,78.798 364.000,80.380 364.000 C 81.459 364.000,81.600 364.134,81.600 365.157 C 81.600 366.334,82.177 366.800,83.633 366.800 C 84.129 366.800,84.400 367.078,84.400 367.586 C 84.400 368.493,85.510 369.200,86.932 369.200 C 87.557 369.200,88.367 369.712,89.146 370.600 C 90.027 371.603,90.709 372.000,91.550 372.000 C 92.489 372.000,92.687 372.146,92.535 372.728 C 92.304 373.609,93.357 374.579,94.195 374.257 C 94.528 374.130,94.800 374.161,94.800 374.327 C 94.800 374.494,95.376 374.674,96.079 374.727 C 97.509 374.836,97.626 374.902,97.741 375.663 C 97.908 376.768,98.486 377.200,99.794 377.200 C 100.824 377.200,101.408 377.511,102.271 378.521 C 103.148 379.548,103.756 379.866,105.000 379.949 C 106.230 380.031,106.896 380.373,107.880 381.428 C 108.880 382.501,109.474 382.800,110.602 382.800 C 111.660 382.800,112.333 383.099,113.123 383.921 C 113.824 384.650,114.689 385.081,115.600 385.153 C 116.554 385.229,117.452 385.701,118.417 386.632 C 119.686 387.858,120.067 388.000,122.074 388.000 C 124.113 388.000,124.335 388.087,124.558 388.973 C 124.881 390.263,126.351 390.711,130.457 390.772 C 132.068 390.796,132.345 390.926,132.552 391.752 C 132.827 392.845,133.765 393.182,136.600 393.206 C 138.287 393.220,138.786 393.412,139.790 394.434 C 140.518 395.176,141.255 395.574,141.690 395.461 C 142.080 395.358,142.400 395.414,142.400 395.583 C 142.400 395.752,143.795 395.923,145.500 395.961 C 147.205 396.000,148.661 396.208,148.736 396.423 C 149.032 397.276,150.158 398.052,150.840 397.874 C 151.237 397.770,151.615 397.838,151.681 398.024 C 151.831 398.453,154.794 398.745,159.300 398.776 C 162.134 398.795,162.800 398.914,162.800 399.400 C 162.800 399.929,167.222 400.000,200.200 400.000 C 233.178 400.000,237.600 399.929,237.600 399.400 C 237.600 398.909,238.308 398.797,241.500 398.781 C 246.971 398.755,250.486 398.059,250.995 396.900 C 251.354 396.082,251.665 395.999,254.395 395.995 C 257.825 395.988,259.305 395.694,258.934 395.093 C 258.778 394.841,258.872 394.797,259.171 394.982 C 259.467 395.165,260.092 394.886,260.733 394.284 C 261.622 393.448,262.278 393.256,264.672 393.129 C 267.151 392.998,267.677 392.834,268.515 391.930 C 269.270 391.115,269.998 390.830,271.794 390.647 C 273.295 390.494,274.305 390.165,274.681 389.706 C 274.999 389.318,275.128 389.253,274.968 389.562 C 274.770 389.944,274.833 390.027,275.165 389.821 C 275.434 389.655,275.564 389.282,275.453 388.993 C 275.190 388.309,276.047 388.000,278.200 388.000 C 280.650 388.000,281.200 387.699,281.200 386.357 C 281.200 385.203,281.207 385.200,283.725 385.200 C 286.066 385.200,286.314 385.113,287.137 384.000 C 287.819 383.077,288.337 382.800,289.379 382.800 C 290.957 382.800,292.000 382.464,292.000 381.957 C 292.000 380.966,293.677 380.000,295.400 380.000 C 296.628 380.000,297.200 379.832,297.200 379.470 C 297.200 378.422,299.002 377.200,300.547 377.200 C 301.848 377.200,302.096 377.045,302.460 376.000 C 302.750 375.169,303.143 374.799,303.739 374.798 C 305.733 374.793,307.515 373.994,307.766 372.993 C 307.959 372.226,308.275 372.000,309.156 372.000 C 310.011 372.000,310.535 371.650,311.248 370.603 C 311.795 369.799,312.540 369.202,313.000 369.197 C 314.631 369.181,315.614 368.682,315.848 367.752 C 316.068 366.873,316.468 366.610,317.342 366.767 C 318.003 366.885,318.800 365.892,318.800 364.951 C 318.800 364.182,319.010 363.999,319.900 363.994 C 321.427 363.986,322.891 363.168,323.485 361.992 C 323.760 361.446,324.263 361.054,324.602 361.120 C 325.150 361.226,326.752 360.052,326.500 359.729 C 326.160 359.291,326.513 358.800,327.167 358.800 C 328.623 358.800,329.200 358.334,329.200 357.157 C 329.200 356.216,329.372 356.000,330.120 356.000 C 331.292 356.000,332.000 355.292,332.000 354.120 C 332.000 353.378,332.218 353.200,333.125 353.200 C 333.911 353.200,334.517 352.838,335.137 352.000 C 335.625 351.340,336.289 350.800,336.612 350.800 C 336.935 350.800,337.200 350.561,337.200 350.270 C 337.200 349.626,338.866 348.000,339.526 348.000 C 339.787 348.000,340.000 347.761,340.000 347.470 C 340.000 346.826,341.666 345.200,342.326 345.200 C 342.587 345.200,342.800 344.999,342.800 344.754 C 342.800 344.138,346.883 340.013,347.500 340.006 C 347.775 340.003,348.000 339.761,348.000 339.470 C 348.000 338.874,349.646 337.200,350.231 337.200 C 350.440 337.200,350.788 336.795,351.005 336.300 C 351.222 335.805,351.805 335.222,352.300 335.005 C 352.969 334.712,353.200 334.275,353.200 333.305 C 353.200 332.210,353.348 332.000,354.120 332.000 C 355.292 332.000,356.000 331.292,356.000 330.120 C 356.000 329.427,356.227 329.200,356.920 329.200 C 358.092 329.200,358.800 328.492,358.800 327.320 C 358.800 326.498,359.189 326.209,360.100 326.353 C 360.265 326.379,360.400 326.209,360.400 325.976 C 360.400 325.743,360.592 325.671,360.827 325.817 C 361.061 325.962,361.220 325.837,361.179 325.540 C 361.015 324.342,361.228 323.600,361.738 323.600 C 362.662 323.600,363.659 322.131,363.887 320.431 C 364.087 318.939,364.387 318.595,365.342 318.767 C 366.003 318.885,366.800 317.892,366.800 316.951 C 366.800 316.393,367.036 316.000,367.371 316.000 C 368.312 316.000,369.200 314.821,369.200 313.571 C 369.200 312.384,370.110 311.150,371.331 310.682 C 371.719 310.533,372.000 309.988,372.000 309.384 C 372.000 308.223,372.758 307.253,373.478 307.493 C 373.962 307.654,374.794 305.290,374.798 303.739 C 374.799 303.143,375.169 302.750,376.000 302.460 C 377.064 302.089,377.200 301.860,377.200 300.438 C 377.200 299.084,377.419 298.660,378.600 297.717 C 379.752 296.797,380.000 296.335,380.000 295.100 C 380.000 293.675,381.057 292.000,381.957 292.000 C 382.464 292.000,382.800 290.957,382.800 289.379 C 382.800 288.337,383.077 287.819,384.000 287.137 C 385.007 286.392,385.200 285.975,385.200 284.542 C 385.200 283.070,385.393 282.680,386.600 281.717 C 387.893 280.685,388.000 280.432,388.006 278.400 C 388.013 276.097,388.267 275.400,389.100 275.400 C 389.375 275.400,389.585 275.240,389.566 275.045 C 389.547 274.849,389.729 274.568,389.970 274.419 C 390.211 274.270,390.512 273.080,390.640 271.774 C 390.822 269.917,391.090 269.209,391.873 268.522 C 392.470 267.998,392.753 267.448,392.575 267.160 C 392.385 266.853,392.445 266.780,392.738 266.962 C 393.070 267.167,393.200 266.471,393.200 264.486 C 393.200 262.169,393.338 261.601,394.055 260.962 C 395.431 259.736,396.000 257.848,396.000 254.508 C 396.000 251.658,396.077 251.356,396.900 250.995 C 398.059 250.486,398.755 246.971,398.781 241.500 C 398.797 238.308,398.909 237.600,399.400 237.600 C 399.929 237.600,400.000 233.178,400.000 200.200 C 400.000 167.222,399.929 162.800,399.400 162.800 C 398.914 162.800,398.795 162.134,398.776 159.300 C 398.744 154.729,398.451 151.831,398.004 151.674 C 397.807 151.605,397.739 151.304,397.853 151.005 C 398.140 150.259,397.301 148.800,396.586 148.800 C 396.060 148.800,395.679 145.145,395.970 142.900 C 396.006 142.625,395.864 142.400,395.655 142.400 C 395.446 142.400,395.363 142.062,395.471 141.649 C 395.597 141.167,395.225 140.444,394.434 139.635 C 393.305 138.480,393.200 138.146,393.200 135.705 C 393.200 133.306,393.083 132.916,392.036 131.819 C 391.130 130.870,390.825 130.109,390.656 128.385 C 390.370 125.456,390.097 124.839,388.956 124.553 C 388.084 124.334,388.000 124.107,388.000 121.966 C 388.000 119.793,387.896 119.525,386.600 118.345 C 385.411 117.263,385.200 116.810,385.200 115.336 C 385.200 114.350,385.012 113.600,384.764 113.600 C 383.922 113.600,382.827 111.789,382.813 110.374 C 382.803 109.255,382.498 108.680,381.400 107.708 C 380.259 106.697,380.000 106.185,380.000 104.934 C 380.000 103.660,379.762 103.210,378.600 102.283 C 377.424 101.345,377.200 100.913,377.200 99.583 C 377.200 98.712,377.065 97.986,376.900 97.969 C 374.971 97.773,374.848 97.666,374.727 96.079 C 374.674 95.376,374.505 94.800,374.352 94.800 C 374.200 94.800,374.161 94.472,374.265 94.072 C 374.496 93.191,373.443 92.221,372.605 92.543 C 372.148 92.718,372.000 92.482,372.000 91.575 C 372.000 90.705,371.616 90.038,370.600 89.146 C 369.447 88.134,369.200 87.640,369.200 86.349 C 369.200 84.926,369.089 84.758,368.000 84.540 C 367.202 84.380,366.800 84.060,366.800 83.583 C 366.800 82.178,366.321 81.600,365.157 81.600 C 364.134 81.600,364.000 81.459,364.000 80.380 C 364.000 78.833,362.965 76.800,362.177 76.800 C 361.577 76.800,360.745 75.253,361.058 74.720 C 361.294 74.318,359.659 73.516,359.192 73.805 C 358.976 73.938,358.800 73.665,358.800 73.197 C 358.800 71.797,358.045 70.800,356.986 70.800 C 356.165 70.800,356.000 70.606,356.000 69.643 C 356.000 68.466,355.423 68.000,353.967 68.000 C 353.381 68.000,353.200 67.716,353.200 66.800 C 353.200 66.140,353.004 65.600,352.764 65.600 C 352.216 65.600,350.831 63.968,350.813 63.300 C 350.806 63.025,350.530 62.800,350.200 62.800 C 349.425 62.800,348.000 61.375,348.000 60.600 C 348.000 60.270,347.730 60.000,347.400 60.000 C 346.725 60.000,345.200 58.613,345.200 58.000 C 345.200 57.780,345.004 57.600,344.764 57.600 C 344.216 57.600,342.831 55.968,342.813 55.300 C 342.806 55.025,342.530 54.800,342.200 54.800 C 341.425 54.800,340.000 53.375,340.000 52.600 C 340.000 52.270,339.730 52.000,339.400 52.000 C 338.725 52.000,337.200 50.613,337.200 50.000 C 337.200 49.780,336.975 49.599,336.700 49.597 C 336.425 49.596,335.772 48.966,335.248 48.197 C 334.541 47.159,334.009 46.800,333.174 46.800 C 332.199 46.800,332.034 46.628,331.925 45.500 C 331.816 44.363,331.640 44.185,330.524 44.076 C 329.475 43.975,329.226 43.762,329.124 42.878 C 329.027 42.037,328.740 41.759,327.805 41.599 C 327.022 41.465,326.559 41.119,326.462 40.597 C 326.236 39.382,325.538 38.723,324.705 38.941 C 324.187 39.076,323.817 38.836,323.511 38.165 C 323.019 37.085,321.154 36.000,319.789 36.000 C 319.121 36.000,318.840 35.701,318.660 34.800 C 318.448 33.741,318.255 33.600,317.023 33.600 C 315.930 33.600,315.677 33.466,315.861 32.985 C 316.218 32.054,314.894 30.851,313.553 30.889 C 312.683 30.914,312.044 30.545,311.080 29.461 C 310.365 28.658,309.408 28.000,308.954 28.000 C 308.457 28.000,307.943 27.593,307.663 26.977 C 307.406 26.415,307.030 26.058,306.826 26.184 C 306.622 26.310,306.342 26.230,306.204 26.007 C 306.066 25.783,305.269 25.600,304.434 25.600 C 303.064 25.600,302.880 25.473,302.545 24.300 C 302.212 23.131,302.006 22.988,300.504 22.878 C 299.211 22.783,298.598 22.476,297.790 21.515 C 297.011 20.589,296.333 20.233,295.114 20.111 C 293.934 19.993,293.197 19.623,292.452 18.774 C 291.801 18.032,291.033 17.600,290.367 17.600 C 289.711 17.600,288.751 17.071,287.827 16.200 C 286.601 15.043,286.042 14.800,284.607 14.800 C 283.152 14.800,282.700 14.597,281.815 13.545 C 280.862 12.413,280.489 12.271,277.989 12.092 C 276.465 11.983,275.305 11.754,275.411 11.583 C 275.754 11.027,275.111 9.948,274.561 10.160 C 274.267 10.273,273.919 10.193,273.789 9.983 C 273.659 9.772,272.730 9.600,271.725 9.600 C 270.198 9.600,269.642 9.370,268.347 8.200 C 266.909 6.900,266.610 6.800,264.180 6.800 C 261.901 6.800,261.442 6.670,260.635 5.800 C 259.651 4.738,258.984 4.467,259.406 5.300 C 259.545 5.575,259.385 5.463,259.050 5.051 C 258.563 4.453,257.711 4.260,254.820 4.095 C 252.399 3.957,251.200 3.731,251.200 3.412 C 251.200 2.844,249.723 2.023,248.600 1.968 C 248.160 1.946,245.505 1.844,242.700 1.741 C 237.981 1.568,237.600 1.496,237.600 0.777 C 237.600 0.013,236.967 0.000,200.200 0.000 C 163.874 0.000,162.800 0.022,162.800 0.751 M111.532 83.500 C 111.730 83.885,111.841 84.380,111.779 84.600 C 111.716 84.820,111.553 85.675,111.415 86.500 C 111.261 87.420,110.942 88.000,110.589 88.000 C 109.992 88.000,109.944 88.158,109.251 92.352 C 109.019 93.756,108.538 95.227,108.182 95.620 C 107.826 96.013,107.206 97.842,106.803 99.684 C 106.401 101.526,105.709 103.656,105.266 104.417 C 104.824 105.178,104.343 106.700,104.198 107.800 C 103.861 110.361,103.239 112.439,102.580 113.200 C 102.294 113.530,101.785 115.381,101.448 117.314 C 101.111 119.247,100.488 121.497,100.064 122.314 C 99.640 123.131,98.995 125.473,98.630 127.519 C 98.266 129.564,97.624 131.904,97.203 132.719 C 96.762 133.573,96.259 135.809,96.015 138.000 C 95.782 140.090,95.397 142.880,95.160 144.200 C 94.402 148.418,95.554 155.416,97.782 160.126 C 98.338 161.300,98.907 162.877,99.048 163.630 C 99.189 164.384,99.718 165.810,100.224 166.800 C 100.729 167.790,101.505 169.410,101.948 170.400 C 102.390 171.390,103.011 172.650,103.326 173.200 C 103.642 173.750,104.856 176.180,106.025 178.600 C 107.193 181.020,108.362 183.270,108.624 183.600 C 108.885 183.930,109.324 184.920,109.600 185.800 C 109.876 186.680,110.319 187.670,110.585 188.000 C 111.245 188.817,115.200 196.928,115.200 197.463 C 115.200 197.699,115.569 198.362,116.021 198.935 C 116.472 199.509,117.127 200.838,117.476 201.889 C 117.825 202.940,118.321 204.070,118.578 204.400 C 119.750 205.904,119.884 207.020,119.496 212.000 C 118.983 218.571,119.894 227.859,121.564 233.087 C 121.978 234.383,122.545 236.873,122.825 238.621 C 123.549 243.143,123.907 243.767,128.175 247.934 C 130.279 249.987,132.000 251.827,132.000 252.023 C 132.000 253.840,124.003 253.833,118.020 252.011 C 116.602 251.579,114.622 251.115,113.620 250.980 C 111.500 250.695,109.490 250.149,107.800 249.398 C 107.140 249.105,105.430 248.648,104.000 248.382 C 102.570 248.116,100.050 247.451,98.400 246.905 C 95.475 245.936,95.122 245.913,84.249 245.964 C 77.804 245.994,72.099 245.836,70.733 245.588 C 68.624 245.205,61.751 242.063,61.209 241.233 C 61.094 241.057,60.280 240.683,59.400 240.402 C 50.203 237.465,48.001 233.997,47.999 222.445 C 47.996 206.878,47.101 203.787,41.151 198.800 C 39.970 197.810,38.494 196.505,37.871 195.900 C 37.248 195.295,36.612 194.800,36.458 194.800 C 36.304 194.800,35.726 194.305,35.173 193.700 C 34.621 193.095,33.725 192.225,33.184 191.767 C 31.899 190.680,29.200 187.523,29.200 187.107 C 29.200 186.929,28.753 186.107,28.207 185.282 C 27.661 184.457,26.864 182.435,26.437 180.791 C 26.010 179.146,25.356 176.990,24.983 176.000 C 23.984 173.341,23.686 164.320,24.532 162.300 C 25.397 160.232,25.758 160.406,26.607 163.300 C 27.011 164.675,27.737 166.520,28.222 167.400 C 28.707 168.280,29.420 169.855,29.806 170.900 C 30.193 171.945,30.625 172.800,30.768 172.800 C 30.911 172.800,31.370 173.385,31.789 174.100 C 32.685 175.630,35.634 178.784,36.178 178.793 C 36.386 178.797,37.016 179.223,37.578 179.741 C 40.913 182.811,49.522 182.885,54.553 179.885 L 57.306 178.244 58.038 179.148 C 58.879 180.186,58.810 180.891,57.371 186.000 C 56.844 187.870,56.248 190.570,56.046 192.000 C 55.844 193.430,55.323 195.680,54.887 197.000 C 54.452 198.320,53.883 200.930,53.624 202.800 C 53.365 204.670,52.857 207.550,52.495 209.200 C 50.240 219.471,52.933 228.340,58.565 229.195 C 61.982 229.713,65.734 227.692,67.006 224.646 C 67.297 223.952,67.895 223.057,68.337 222.657 C 68.876 222.170,69.294 220.989,69.609 219.065 C 69.867 217.489,70.327 215.807,70.631 215.327 C 71.472 213.998,72.142 209.241,71.718 207.615 C 71.100 205.246,67.411 203.482,61.777 202.861 C 53.071 201.902,56.696 199.670,68.400 198.782 C 77.588 198.085,80.746 196.458,83.502 191.000 L 84.916 188.200 85.461 179.400 C 85.761 174.560,86.258 169.610,86.565 168.400 C 86.872 167.190,87.340 164.220,87.605 161.800 C 87.870 159.380,88.444 155.960,88.881 154.200 C 89.317 152.440,90.096 148.840,90.610 146.200 C 91.124 143.560,91.913 140.590,92.364 139.600 C 92.814 138.610,93.186 137.115,93.191 136.277 C 93.203 134.279,93.896 131.416,94.883 129.295 C 95.319 128.357,95.834 126.334,96.027 124.800 C 96.219 123.265,96.750 121.242,97.206 120.305 C 97.662 119.367,98.318 117.160,98.663 115.400 C 99.009 113.640,99.647 111.578,100.082 110.817 C 100.516 110.056,101.044 108.346,101.256 107.017 C 101.468 105.688,102.172 103.506,102.821 102.168 C 103.469 100.831,104.000 99.250,104.000 98.656 C 104.000 97.429,105.024 94.756,105.640 94.376 C 105.864 94.237,106.390 92.793,106.809 91.167 C 107.227 89.541,107.759 88.147,107.992 88.069 C 108.913 87.762,109.600 86.684,109.600 85.545 C 109.600 83.315,110.789 82.056,111.532 83.500 M302.555 123.760 C 303.350 125.278,304.000 126.943,304.000 127.460 C 304.000 129.133,305.263 135.772,305.738 136.598 C 306.338 137.640,306.223 164.664,305.586 172.357 C 305.042 178.918,304.513 200.288,304.797 204.200 L 305.000 207.000 306.681 207.122 C 308.671 207.267,309.125 206.711,313.800 198.420 C 314.460 197.250,315.495 195.707,316.100 194.993 C 316.705 194.279,317.200 193.522,317.200 193.311 C 317.200 192.724,322.802 187.219,324.064 186.567 C 324.677 186.250,325.838 185.543,326.645 184.995 C 327.452 184.448,328.453 184.000,328.869 184.000 C 329.286 184.000,330.476 183.576,331.513 183.058 C 332.551 182.539,334.696 181.727,336.280 181.252 C 337.864 180.778,339.271 180.209,339.407 179.989 C 339.543 179.769,340.403 179.207,341.317 178.740 C 342.232 178.274,343.449 177.421,344.022 176.846 C 344.595 176.271,346.452 174.540,348.148 173.000 C 349.845 171.460,351.739 169.687,352.356 169.059 C 355.069 166.303,355.860 169.509,353.575 174.000 C 347.816 185.319,347.947 187.575,354.472 189.378 C 357.644 190.255,359.377 192.109,362.557 198.025 C 363.096 199.029,363.831 200.093,364.189 200.391 C 364.547 200.688,365.177 201.671,365.589 202.575 C 366.001 203.480,366.712 204.558,367.169 204.972 C 367.626 205.386,368.000 205.904,368.000 206.124 C 368.000 206.344,368.409 207.081,368.908 207.762 C 369.408 208.443,370.016 209.450,370.259 210.000 C 370.503 210.550,371.250 212.170,371.920 213.600 C 375.561 221.369,375.365 232.253,371.548 234.227 C 368.863 235.615,350.878 236.330,327.800 235.967 C 315.044 235.766,309.913 235.467,303.753 234.566 C 302.143 234.331,300.027 232.260,298.391 229.321 C 297.680 228.044,296.667 226.217,296.139 225.260 C 291.426 216.714,288.661 217.269,278.998 228.700 C 275.938 232.320,275.835 232.386,275.170 231.144 C 274.560 230.005,274.957 227.228,276.255 223.549 C 277.774 219.244,277.789 211.041,276.286 207.185 C 275.731 205.763,275.059 203.880,274.791 203.000 C 274.524 202.120,273.816 200.590,273.219 199.600 C 270.456 195.017,271.059 194.000,276.537 194.000 C 284.087 194.000,291.481 188.224,293.578 180.690 C 293.871 179.639,294.276 178.677,294.480 178.551 C 295.370 178.000,295.716 176.127,297.388 162.800 C 297.722 160.139,298.145 150.779,298.392 140.600 C 298.950 117.561,299.065 117.095,302.555 123.760 M149.800 139.792 C 151.340 140.149,154.068 140.700,155.862 141.016 C 159.488 141.655,160.119 141.876,163.000 143.516 C 166.134 145.300,167.034 148.656,165.412 152.517 C 164.257 155.267,161.895 154.928,161.390 151.940 C 160.562 147.037,159.930 146.811,147.077 146.804 C 137.985 146.800,132.977 146.357,131.420 145.420 C 130.969 145.148,129.819 144.684,128.864 144.387 C 127.154 143.856,123.800 140.882,123.800 139.896 C 123.800 138.614,144.363 138.532,149.800 139.792 M273.820 146.768 C 278.017 147.116,280.273 147.911,281.773 149.570 C 283.043 150.973,281.950 151.581,276.593 152.451 C 274.014 152.870,271.739 153.314,271.537 153.439 C 270.726 153.940,265.772 154.426,257.943 154.774 C 247.906 155.219,248.000 155.180,248.000 158.847 C 248.000 162.137,247.199 163.202,245.938 161.587 C 245.514 161.044,244.770 160.104,244.284 159.498 C 241.454 155.969,243.440 150.059,247.826 148.958 C 248.458 148.799,249.574 148.316,250.305 147.885 C 252.527 146.574,264.576 146.002,273.820 146.768 M351.500 200.481 C 350.675 200.700,350.000 200.997,350.000 201.140 C 350.000 201.283,349.370 202.108,348.600 202.973 C 347.830 203.838,347.199 204.828,347.198 205.173 C 347.197 205.518,346.556 207.047,345.774 208.571 C 344.992 210.094,344.180 212.250,343.969 213.361 C 343.759 214.472,343.229 216.066,342.793 216.903 C 341.673 219.053,341.737 221.707,342.939 222.882 C 346.355 226.223,347.562 226.801,351.119 226.798 C 359.356 226.791,363.737 220.478,362.413 210.524 C 361.295 202.124,357.716 198.830,351.500 200.481 M325.784 202.552 C 323.403 203.212,315.665 210.200,308.605 218.068 C 305.589 221.428,305.779 224.865,309.070 226.522 C 309.911 226.946,310.960 227.602,311.400 227.981 C 312.960 229.325,318.091 230.800,321.206 230.800 C 326.972 230.800,335.289 228.875,335.851 227.411 C 335.980 227.075,336.308 226.800,336.581 226.800 C 338.328 226.800,338.535 225.595,338.238 217.147 L 337.954 209.090 336.612 206.992 C 333.900 202.752,330.336 201.291,325.784 202.552 M213.600 202.770 C 220.967 203.330,226.216 206.292,230.597 212.361 L 232.157 214.521 232.139 218.404 L 232.121 222.287 230.260 224.895 C 229.237 226.329,225.944 229.820,222.943 232.651 C 211.374 243.570,210.885 244.087,210.580 245.739 C 210.217 247.708,210.967 250.247,212.089 250.848 C 212.562 251.101,213.288 251.624,213.702 252.010 C 215.859 254.018,229.445 254.005,235.800 251.987 C 237.120 251.568,239.640 250.938,241.400 250.587 C 243.160 250.236,245.320 249.609,246.200 249.193 C 247.080 248.778,248.663 248.247,249.719 248.013 C 250.774 247.779,252.484 247.154,253.519 246.624 C 254.553 246.093,256.210 245.430,257.200 245.150 C 258.190 244.871,259.630 244.246,260.400 243.763 C 261.170 243.280,262.484 242.766,263.321 242.620 C 264.158 242.475,264.942 242.096,265.064 241.778 C 265.206 241.407,265.808 241.217,266.743 241.246 C 267.617 241.274,267.880 241.373,267.400 241.493 C 266.445 241.731,266.016 242.315,266.001 243.400 C 265.989 244.281,262.573 247.476,260.497 248.550 C 259.784 248.919,259.200 249.363,259.200 249.538 C 259.200 249.867,253.590 252.784,249.400 254.633 C 248.080 255.216,245.650 256.019,244.000 256.418 C 242.350 256.818,240.190 257.447,239.200 257.817 C 235.210 259.309,221.708 260.286,214.400 259.612 C 195.680 257.885,187.955 257.967,181.000 259.967 C 170.392 263.018,154.759 261.596,149.720 257.122 C 142.073 250.334,137.728 243.550,139.230 240.744 C 139.840 239.604,140.027 239.721,144.440 244.000 C 146.708 246.200,148.694 248.000,148.852 248.000 C 149.009 248.000,149.688 248.462,150.360 249.028 C 151.031 249.593,152.890 250.718,154.490 251.528 L 157.400 253.000 171.200 253.000 L 185.000 253.000 187.334 251.466 C 194.372 246.840,193.780 245.001,182.228 235.600 C 180.742 234.390,179.090 232.661,178.559 231.759 C 178.028 230.856,177.234 229.793,176.796 229.397 C 176.358 229.000,176.000 228.456,176.000 228.186 C 176.000 227.917,175.370 226.651,174.600 225.372 C 173.830 224.093,173.200 222.744,173.200 222.373 C 173.200 222.003,172.732 220.642,172.160 219.350 C 169.848 214.129,173.027 207.507,178.800 205.515 C 185.162 203.320,186.427 203.022,190.400 202.782 C 196.558 202.409,208.773 202.403,213.600 202.770 M83.845 204.967 C 81.558 206.256,77.484 210.475,76.975 212.079 C 76.849 212.476,76.598 212.800,76.417 212.800 C 76.236 212.800,75.721 213.565,75.273 214.500 C 74.824 215.435,73.968 216.715,73.370 217.346 C 72.626 218.130,72.110 219.319,71.733 221.115 C 71.431 222.557,70.999 223.960,70.774 224.231 C 70.381 224.705,69.135 228.567,68.365 231.701 C 66.987 237.304,76.685 239.381,87.456 235.788 C 92.839 233.992,99.498 234.063,100.900 235.931 C 103.467 239.350,109.902 241.297,111.780 239.222 C 112.778 238.119,112.287 234.251,110.793 231.451 C 110.176 230.294,109.474 228.639,109.233 227.774 C 108.993 226.908,108.024 225.358,107.080 224.329 L 105.364 222.459 103.571 223.575 C 102.585 224.188,101.562 225.165,101.298 225.745 C 101.028 226.337,100.489 226.800,100.071 226.800 C 98.377 226.800,98.040 225.654,95.547 211.401 C 95.317 210.082,94.989 208.912,94.820 208.801 C 94.650 208.691,94.210 208.011,93.841 207.292 C 91.937 203.576,87.953 202.649,83.845 204.967 M88.633 299.413 C 89.562 300.411,90.606 301.826,90.953 302.558 C 91.301 303.291,91.867 304.124,92.212 304.410 C 92.557 304.697,93.190 305.700,93.619 306.641 C 94.047 307.582,94.570 308.458,94.781 308.588 C 94.991 308.718,95.650 309.719,96.245 310.812 C 96.840 311.906,97.454 312.800,97.609 312.800 C 97.764 312.800,98.377 313.286,98.972 313.881 C 100.504 315.413,100.787 314.708,100.794 309.339 L 100.800 304.879 99.374 303.739 C 94.079 299.508,94.590 298.046,101.491 297.685 C 107.564 297.367,110.574 299.071,108.298 301.538 C 106.693 303.276,106.632 303.731,106.412 315.533 C 106.173 328.337,106.265 328.000,102.982 328.000 C 101.032 328.000,99.716 326.980,98.440 324.478 C 97.984 323.585,97.426 322.740,97.200 322.600 C 96.974 322.460,96.415 321.613,95.957 320.717 C 95.500 319.821,94.785 318.721,94.368 318.273 C 93.951 317.825,93.497 317.086,93.360 316.629 C 93.222 316.173,92.696 315.350,92.191 314.800 C 91.685 314.250,90.871 313.023,90.381 312.073 L 89.491 310.346 88.748 311.473 C 86.973 314.165,87.907 322.800,89.973 322.800 C 92.065 322.800,93.195 325.659,91.738 327.269 C 90.925 328.166,81.341 328.381,80.480 327.520 C 79.506 326.546,79.902 323.844,81.200 322.600 L 82.400 321.450 82.400 313.214 C 82.400 304.085,82.463 304.339,79.544 301.701 C 77.025 299.426,79.062 297.626,84.172 297.609 L 86.944 297.600 88.633 299.413 M221.725 298.428 C 224.613 299.255,228.502 303.281,229.620 306.600 C 230.344 308.750,230.358 316.756,229.643 319.671 C 228.880 322.784,226.346 325.381,222.113 327.389 C 220.564 328.124,205.289 328.290,203.974 327.586 C 202.653 326.879,202.913 324.190,204.426 322.917 L 205.652 321.885 205.526 312.608 L 205.400 303.332 204.132 301.888 C 202.568 300.108,202.737 299.088,204.740 298.224 C 206.603 297.421,218.713 297.566,221.725 298.428 M213.620 303.240 C 211.284 303.734,211.200 304.082,211.200 313.227 C 211.200 323.159,210.904 322.608,216.225 322.581 C 220.481 322.558,222.811 321.428,223.882 318.867 C 226.773 311.945,224.316 304.711,218.704 303.627 C 215.025 302.917,215.114 302.923,213.620 303.240 M129.901 305.291 C 130.286 305.628,131.171 306.193,131.869 306.546 C 133.917 307.583,134.882 310.659,135.108 316.862 L 135.292 321.924 136.648 322.654 C 137.394 323.056,138.077 323.658,138.165 323.992 C 139.162 327.766,138.994 327.864,131.000 328.161 C 127.480 328.292,123.522 328.508,122.205 328.642 C 111.321 329.747,107.707 317.574,117.947 314.295 C 119.157 313.908,120.443 313.323,120.805 312.995 C 121.258 312.585,122.351 312.400,124.317 312.400 C 126.710 312.400,127.238 312.277,127.578 311.642 C 128.493 309.932,125.819 309.655,117.918 310.642 C 114.864 311.024,113.382 307.661,116.034 306.368 C 119.588 304.637,120.740 304.412,125.301 304.555 C 128.094 304.643,129.401 304.853,129.901 305.291 M162.792 305.995 C 165.840 307.951,166.648 310.123,167.066 317.487 C 167.294 321.502,167.420 322.067,168.260 322.857 C 171.119 325.542,169.190 327.975,164.200 327.975 C 159.046 327.975,157.389 325.733,160.300 322.696 C 161.972 320.952,161.968 314.204,160.294 311.672 C 157.215 307.015,151.141 310.799,150.870 317.544 L 150.712 321.463 152.356 322.765 C 156.145 325.766,154.342 328.000,148.130 328.000 C 141.625 328.000,139.751 325.849,143.600 322.800 L 145.200 321.533 145.200 317.154 C 145.200 312.346,144.799 310.881,142.996 309.094 L 141.879 307.988 143.606 306.394 C 145.528 304.620,147.455 304.291,149.555 305.377 C 150.552 305.892,150.922 305.871,153.035 305.174 C 156.598 304.000,160.148 304.298,162.792 305.995 M191.501 305.256 C 191.886 305.574,192.699 306.084,193.309 306.390 C 195.580 307.527,196.795 310.754,196.840 315.771 C 196.888 321.157,197.091 321.964,198.610 322.806 C 199.504 323.301,199.861 323.850,200.058 325.032 C 200.504 327.703,200.110 327.870,192.680 328.160 C 189.116 328.299,185.124 328.519,183.810 328.649 C 172.862 329.728,169.468 317.467,179.813 314.213 C 180.990 313.843,182.019 313.344,182.098 313.105 C 182.178 312.865,183.727 312.560,185.541 312.427 C 188.972 312.175,190.027 311.596,189.098 310.477 C 188.639 309.924,184.759 309.988,179.917 310.629 C 178.003 310.882,176.000 309.642,176.000 308.204 C 176.000 307.214,178.630 305.657,181.800 304.769 C 183.718 304.231,190.686 304.582,191.501 305.256 M254.200 305.952 C 258.022 307.918,261.071 311.723,261.208 314.700 C 261.452 319.965,261.755 319.800,251.844 319.800 C 243.959 319.800,243.590 319.835,242.760 320.663 L 241.896 321.526 243.086 322.141 C 244.998 323.130,247.986 323.326,253.168 322.803 C 260.420 322.071,262.617 322.947,260.537 325.742 C 257.948 329.222,243.720 329.944,240.114 326.778 C 239.376 326.130,238.637 325.600,238.472 325.600 C 238.307 325.600,237.878 325.105,237.517 324.500 C 237.157 323.895,236.443 322.954,235.931 322.410 C 235.072 321.496,235.000 321.076,235.000 317.002 L 235.000 312.585 236.591 310.392 C 238.670 307.527,240.136 306.502,244.800 304.649 C 246.472 303.985,251.814 304.725,254.200 305.952 M314.200 304.854 C 315.080 305.093,316.579 305.378,317.532 305.487 C 320.337 305.809,321.640 308.815,320.190 311.620 C 319.854 312.269,319.359 312.820,319.090 312.844 C 317.097 313.024,315.086 312.244,313.904 310.832 C 313.152 309.933,308.438 309.609,307.232 310.372 C 305.291 311.600,309.381 313.886,314.180 314.255 C 316.097 314.403,317.876 314.740,318.133 315.006 C 325.160 322.272,321.764 328.551,310.800 328.564 C 300.161 328.577,298.582 327.924,298.641 323.543 C 298.694 319.657,301.882 318.396,304.146 321.365 C 305.765 323.488,312.939 323.911,315.272 322.022 L 316.146 321.314 315.077 320.614 C 313.999 319.907,308.130 318.322,304.800 317.838 C 302.661 317.527,302.557 317.461,300.950 315.385 C 298.492 312.212,299.538 307.830,303.115 306.307 C 303.712 306.053,304.470 305.627,304.800 305.359 C 305.973 304.409,311.473 304.113,314.200 304.854 M275.830 305.812 C 277.636 307.162,277.806 308.287,276.401 309.599 C 274.837 311.060,274.760 313.147,276.200 315.036 C 276.750 315.757,277.200 316.533,277.200 316.760 C 277.200 317.348,278.501 320.000,278.789 320.000 C 278.922 320.000,279.685 319.217,280.485 318.260 C 283.329 314.858,283.997 311.451,282.200 309.513 C 279.834 306.962,282.529 304.800,288.076 304.800 L 291.838 304.800 293.394 306.394 L 294.951 307.988 294.006 308.994 C 293.486 309.547,292.860 310.000,292.615 310.000 C 291.852 310.000,289.200 313.501,288.141 315.905 C 287.585 317.167,286.899 318.470,286.616 318.800 C 286.333 319.130,285.877 320.120,285.602 321.000 C 285.328 321.880,284.720 323.230,284.252 324.000 C 283.784 324.770,283.111 325.940,282.755 326.600 C 282.179 327.671,281.880 327.813,279.973 327.924 C 276.609 328.119,276.383 327.870,272.183 319.377 C 268.505 311.936,268.324 311.659,266.298 310.350 C 263.323 308.428,263.421 306.796,266.600 305.342 C 268.494 304.475,274.446 304.778,275.830 305.812 M245.000 310.445 C 244.075 310.897,242.331 313.398,242.691 313.758 C 243.112 314.179,253.136 314.028,253.402 313.596 C 253.708 313.102,252.250 311.178,251.066 310.514 C 250.036 309.936,246.133 309.892,245.000 310.445 M120.145 319.399 C 116.228 321.284,117.066 323.018,121.868 322.965 C 127.283 322.906,128.620 322.082,127.610 319.426 C 127.053 317.963,123.158 317.948,120.145 319.399 M183.422 318.691 C 182.510 318.923,179.768 320.604,179.443 321.130 C 179.320 321.330,179.594 321.832,180.053 322.247 C 181.705 323.739,190.000 322.836,190.000 321.163 C 190.000 318.885,187.037 317.771,183.422 318.691 " stroke="none" fill="#f3bb04" fill-rule="evenodd"></path></g></svg>